<mxfile host="app.diagrams.net" modified="2023-09-03T21:06:16.979Z" agent="Mozilla/5.0 (Windows NT 10.0; Win64; x64) AppleWebKit/537.36 (KHTML, like Gecko) Chrome/115.0.0.0 Safari/537.36" version="21.7.2" etag="kk1aMkEhwy1ilEF-lblO" type="device">
  <diagram id="MNziPWPMptqC1AUWlC5d" name="Page-1">
    <mxGraphModel dx="1434" dy="758" grid="1" gridSize="10" guides="1" tooltips="1" connect="1" arrows="1" fold="1" page="1" pageScale="1" pageWidth="827" pageHeight="1169" math="0" shadow="0">
      <root>
        <mxCell id="0" />
        <mxCell id="1" parent="0" />
        <mxCell id="DmXZ-GGn6OgkoMs6ngeG-1" value="&lt;p style=&quot;margin:0px;margin-top:4px;text-align:center;&quot;&gt;&amp;lt;&amp;lt;actor&amp;gt;&amp;gt;&lt;br&gt;&lt;b&gt;Utilisateur&lt;/b&gt;&lt;/p&gt;" style="shape=rect;html=1;overflow=fill;html=1;whiteSpace=wrap;align=center;" vertex="1" parent="1">
          <mxGeometry x="110" y="530" width="160" height="200" as="geometry" />
        </mxCell>
        <mxCell id="DmXZ-GGn6OgkoMs6ngeG-2" value="Utilisateur" style="shape=umlActor;html=1;verticalLabelPosition=bottom;verticalAlign=top;align=center;" vertex="1" parent="1">
          <mxGeometry x="175" y="600" width="30" height="60" as="geometry" />
        </mxCell>
        <mxCell id="DmXZ-GGn6OgkoMs6ngeG-3" value="Création commentaire" style="shape=rect;html=1;verticalAlign=top;fontStyle=1;whiteSpace=wrap;align=center;" vertex="1" parent="1">
          <mxGeometry x="350" y="480" width="300" height="300" as="geometry" />
        </mxCell>
        <mxCell id="DmXZ-GGn6OgkoMs6ngeG-4" value="Création commentaire" style="shape=ellipse;html=1;strokeWidth=3;fontStyle=1;whiteSpace=wrap;align=center;perimeter=ellipsePerimeter;" vertex="1" parent="1">
          <mxGeometry x="370" y="540" width="120" height="60" as="geometry" />
        </mxCell>
        <mxCell id="DmXZ-GGn6OgkoMs6ngeG-5" value="Authentification" style="shape=ellipse;html=1;strokeWidth=3;fontStyle=1;whiteSpace=wrap;align=center;perimeter=ellipsePerimeter;" vertex="1" parent="1">
          <mxGeometry x="490" y="650" width="120" height="60" as="geometry" />
        </mxCell>
        <mxCell id="DmXZ-GGn6OgkoMs6ngeG-6" value="&amp;lt;&amp;lt;include&amp;gt;&amp;gt;" style="edgeStyle=none;html=1;endArrow=open;verticalAlign=bottom;dashed=1;labelBackgroundColor=none;rounded=0;exitX=1;exitY=1;exitDx=0;exitDy=0;entryX=0;entryY=0;entryDx=0;entryDy=0;" edge="1" parent="1" source="DmXZ-GGn6OgkoMs6ngeG-4" target="DmXZ-GGn6OgkoMs6ngeG-5">
          <mxGeometry width="160" relative="1" as="geometry">
            <mxPoint x="330" y="690" as="sourcePoint" />
            <mxPoint x="490" y="690" as="targetPoint" />
          </mxGeometry>
        </mxCell>
        <mxCell id="DmXZ-GGn6OgkoMs6ngeG-7" value="" style="edgeStyle=none;html=1;endArrow=none;verticalAlign=bottom;rounded=0;exitX=0.5;exitY=0.5;exitDx=0;exitDy=0;exitPerimeter=0;entryX=0;entryY=0.5;entryDx=0;entryDy=0;" edge="1" parent="1" source="DmXZ-GGn6OgkoMs6ngeG-2" target="DmXZ-GGn6OgkoMs6ngeG-4">
          <mxGeometry width="160" relative="1" as="geometry">
            <mxPoint x="330" y="690" as="sourcePoint" />
            <mxPoint x="490" y="690" as="targetPoint" />
          </mxGeometry>
        </mxCell>
      </root>
    </mxGraphModel>
  </diagram>
</mxfile>
